<svg width="512" height="512" viewBox="0 0 512 512" fill="none" xmlns="http://www.w3.org/2000/svg">
<path d="M392.02 277.988C379.562 277.988 373.165 277.988 365.119 277.988H145.855C139.399 277.988 150.332 277.988 120.432 277.988C142.418 233.136 199.859 197.518 257.978 197.518C315.123 197.518 369.486 234.339 392.02 277.988Z" fill="#5A9216"/>
<path d="M120 389.067C132.458 389.067 138.855 389.067 146.902 389.067H366.165C372.621 389.067 361.688 389.067 391.588 389.067C369.602 433.92 312.162 469.538 254.042 469.538C196.897 469.538 142.534 432.716 120 389.067Z" fill="#5A9216"/>
<g filter="url(#filter0_d)">
<path d="M220.827 124.559C225.336 141.385 212.894 179.749 199.782 187.344C184.629 187.323 154.673 160.32 150.164 143.493C145.655 126.666 157.819 108.786 177.332 103.558C196.845 98.3293 216.318 107.732 220.827 124.559Z" fill="#FFB300"/>
<path d="M220.827 124.559C225.336 141.385 212.894 179.749 199.782 187.344C184.629 187.323 154.673 160.32 150.164 143.493C145.655 126.666 157.819 108.786 177.332 103.558C196.845 98.3293 216.318 107.732 220.827 124.559Z" fill="#FFB300"/>
</g>
<circle cx="185.582" cy="134.347" r="13.5861" transform="rotate(-15 185.582 134.347)" fill="white"/>
<g filter="url(#filter1_d)">
<path d="M362.811 143.493C358.303 160.32 328.346 187.323 313.193 187.344C300.081 179.749 287.639 141.385 292.148 124.559C296.657 107.732 316.13 98.3293 335.644 103.558C355.157 108.786 367.32 126.666 362.811 143.493Z" fill="#8BC34A"/>
<path d="M362.811 143.493C358.303 160.32 328.346 187.323 313.193 187.344C300.081 179.749 287.639 141.385 292.148 124.559C296.657 107.732 316.13 98.3293 335.644 103.558C355.157 108.786 367.32 126.666 362.811 143.493Z" fill="#8BC34A"/>
<circle cx="327.394" cy="134.347" r="13.5861" transform="rotate(15 327.394 134.347)" fill="white"/>
</g>
<g filter="url(#filter2_d)">
<path d="M316.214 91.3441C316.214 118.314 279.955 170.7 255.782 176.804C231.609 170.7 195.35 118.314 195.35 91.3441C195.35 64.3738 222.406 42.51 255.782 42.51C289.158 42.51 316.214 64.3738 316.214 91.3441Z" fill="#FD1313"/>
<path d="M316.214 91.3441C316.214 118.314 279.955 170.7 255.782 176.804C231.609 170.7 195.35 118.314 195.35 91.3441C195.35 64.3738 222.406 42.51 255.782 42.51C289.158 42.51 316.214 64.3738 316.214 91.3441Z" fill="#FD1313"/>
<circle cx="255.704" cy="91.8906" r="22.2081" fill="white"/>
</g>
<path d="M276.344 123.504C260.769 135.231 251.851 135.558 235.586 123.504" stroke="white" stroke-width="4" stroke-linecap="round" stroke-linejoin="round"/>
<path d="M118.223 362.33C117.167 362.33 116.345 362.066 115.759 361.538C115.187 360.995 114.901 360.233 114.901 359.25V353.332H113.141V350.67H114.901V348.25C115.942 348.074 116.969 347.942 117.981 347.854V350.67H120.841V353.332H117.981V358.678C117.981 358.986 118.069 359.221 118.245 359.382C118.435 359.543 118.699 359.624 119.037 359.624C119.447 359.624 119.917 359.529 120.445 359.338L121.127 361.67C120.188 362.11 119.22 362.33 118.223 362.33ZM128.891 350.67H131.993V352.518H132.169C132.594 351.77 133.012 351.22 133.423 350.868C133.848 350.516 134.376 350.34 135.007 350.34C135.271 350.34 135.491 350.369 135.667 350.428L135.337 353.772C134.955 353.669 134.647 353.618 134.413 353.618C134.075 353.618 133.775 353.684 133.511 353.816C133.261 353.948 133.034 354.124 132.829 354.344C132.638 354.564 132.359 354.901 131.993 355.356V362H128.891V350.67ZM146.003 362.33C144.83 362.33 143.898 361.831 143.209 360.834C142.52 359.837 142.175 358.48 142.175 356.764C142.175 354.681 142.703 353.097 143.759 352.012C144.815 350.912 146.333 350.362 148.313 350.362C149.428 350.362 150.733 350.538 152.229 350.89V362H149.281L149.347 360.196H149.259C148.878 360.885 148.408 361.413 147.851 361.78C147.308 362.147 146.692 362.33 146.003 362.33ZM146.663 359.624C147.118 359.624 147.565 359.382 148.005 358.898C148.445 358.414 148.856 357.769 149.237 356.962V353.266C148.768 353.134 148.298 353.068 147.829 353.068C146.949 353.068 146.282 353.369 145.827 353.97C145.387 354.571 145.167 355.459 145.167 356.632C145.167 357.556 145.299 358.289 145.563 358.832C145.827 359.36 146.194 359.624 146.663 359.624ZM159.409 350.714L162.797 350.406L165.305 358.568L167.703 350.67H171.025L167.043 362H163.413L159.409 350.714ZM183.284 362.33C181.45 362.33 180.006 361.802 178.95 360.746C177.908 359.69 177.388 358.223 177.388 356.346C177.388 355.129 177.615 354.073 178.07 353.178C178.524 352.269 179.162 351.572 179.984 351.088C180.82 350.604 181.795 350.362 182.91 350.362C184.552 350.362 185.814 350.89 186.694 351.946C187.574 353.002 188.014 354.527 188.014 356.522C188.014 356.859 188.006 357.109 187.992 357.27H180.512C180.658 358.047 180.996 358.641 181.524 359.052C182.052 359.448 182.763 359.646 183.658 359.646C184.2 359.646 184.765 359.58 185.352 359.448C185.938 359.301 186.452 359.111 186.892 358.876L187.398 361.362C186.811 361.67 186.158 361.905 185.44 362.066C184.736 362.242 184.017 362.33 183.284 362.33ZM185.044 354.938C185 354.307 184.78 353.809 184.384 353.442C183.988 353.061 183.46 352.87 182.8 352.87C182.169 352.87 181.648 353.053 181.238 353.42C180.842 353.787 180.592 354.293 180.49 354.938H185.044ZM195.113 359.338H197.115V348.58H195.223V345.94H200.217V359.338H202.219V362H195.113V359.338ZM211.076 345.94H214.618V348.8H211.076V345.94ZM209.36 359.338H211.472V353.332H209.36V350.67H214.574V359.338H216.466V362H209.36V359.338ZM224.022 350.67H227.058V352.628C227.527 351.851 228.07 351.279 228.686 350.912C229.302 350.545 230.02 350.362 230.842 350.362C232.059 350.362 233.012 350.729 233.702 351.462C234.391 352.181 234.736 353.185 234.736 354.476V362H231.634V354.96C231.634 354.373 231.487 353.919 231.194 353.596C230.9 353.259 230.504 353.09 230.006 353.09C229.419 353.09 228.862 353.31 228.334 353.75C227.806 354.19 227.402 354.747 227.124 355.422V362H224.022V350.67ZM246.667 366.994C245.361 366.994 244.085 366.825 242.839 366.488L243.433 363.76C244.841 364.171 246.014 364.376 246.953 364.376C247.701 364.376 248.273 364.259 248.669 364.024C249.079 363.789 249.365 363.423 249.527 362.924C249.703 362.425 249.805 361.743 249.835 360.878H249.769C249.358 361.347 248.881 361.707 248.339 361.956C247.796 362.205 247.202 362.33 246.557 362.33C245.266 362.33 244.254 361.846 243.521 360.878C242.802 359.895 242.443 358.539 242.443 356.808C242.443 354.711 242.978 353.112 244.049 352.012C245.134 350.912 246.681 350.362 248.691 350.362C249.849 350.362 251.228 350.538 252.827 350.89C252.856 353.911 252.87 356.185 252.87 357.71C252.87 359.074 252.863 360.101 252.849 360.79C252.819 362.873 252.291 364.427 251.265 365.454C250.253 366.481 248.72 366.994 246.667 366.994ZM247.37 359.624C247.825 359.624 248.258 359.455 248.669 359.118C249.094 358.781 249.468 358.304 249.791 357.688L249.769 353.266C249.285 353.134 248.815 353.068 248.361 353.068C247.437 353.068 246.733 353.369 246.249 353.97C245.779 354.571 245.545 355.444 245.545 356.588C245.545 357.541 245.699 358.289 246.007 358.832C246.329 359.36 246.784 359.624 247.37 359.624ZM275.252 362.33C274.196 362.33 273.375 362.066 272.788 361.538C272.216 360.995 271.93 360.233 271.93 359.25V353.332H270.17V350.67H271.93V348.25C272.971 348.074 273.998 347.942 275.01 347.854V350.67H277.87V353.332H275.01V358.678C275.01 358.986 275.098 359.221 275.274 359.382C275.465 359.543 275.729 359.624 276.066 359.624C276.477 359.624 276.946 359.529 277.474 359.338L278.156 361.67C277.217 362.11 276.249 362.33 275.252 362.33ZM290.553 362.33C289.409 362.33 288.397 362.081 287.517 361.582C286.651 361.083 285.977 360.387 285.493 359.492C285.009 358.583 284.767 357.534 284.767 356.346C284.767 355.158 285.001 354.117 285.471 353.222C285.955 352.313 286.629 351.609 287.495 351.11C288.375 350.611 289.387 350.362 290.531 350.362C291.675 350.362 292.679 350.611 293.545 351.11C294.425 351.594 295.099 352.283 295.569 353.178C296.053 354.073 296.295 355.107 296.295 356.28C296.295 357.468 296.053 358.524 295.569 359.448C295.099 360.357 294.425 361.069 293.545 361.582C292.679 362.081 291.682 362.33 290.553 362.33ZM290.531 359.646C291.323 359.646 291.953 359.345 292.423 358.744C292.907 358.128 293.149 357.321 293.149 356.324C293.149 355.327 292.907 354.535 292.423 353.948C291.953 353.347 291.323 353.046 290.531 353.046C289.739 353.046 289.101 353.347 288.617 353.948C288.147 354.535 287.913 355.327 287.913 356.324C287.913 357.321 288.147 358.128 288.617 358.744C289.101 359.345 289.739 359.646 290.531 359.646ZM307.983 366.994C306.678 366.994 305.402 366.825 304.155 366.488L304.749 363.76C306.157 364.171 307.33 364.376 308.269 364.376C309.017 364.376 309.589 364.259 309.985 364.024C310.396 363.789 310.682 363.423 310.843 362.924C311.019 362.425 311.122 361.743 311.151 360.878H311.085C310.674 361.347 310.198 361.707 309.655 361.956C309.112 362.205 308.518 362.33 307.873 362.33C306.582 362.33 305.57 361.846 304.837 360.878C304.118 359.895 303.759 358.539 303.759 356.808C303.759 354.711 304.294 353.112 305.365 352.012C306.45 350.912 307.998 350.362 310.007 350.362C311.166 350.362 312.544 350.538 314.143 350.89C314.172 353.911 314.187 356.185 314.187 357.71C314.187 359.074 314.18 360.101 314.165 360.79C314.136 362.873 313.608 364.427 312.581 365.454C311.569 366.481 310.036 366.994 307.983 366.994ZM308.687 359.624C309.142 359.624 309.574 359.455 309.985 359.118C310.41 358.781 310.784 358.304 311.107 357.688L311.085 353.266C310.601 353.134 310.132 353.068 309.677 353.068C308.753 353.068 308.049 353.369 307.565 353.97C307.096 354.571 306.861 355.444 306.861 356.588C306.861 357.541 307.015 358.289 307.323 358.832C307.646 359.36 308.1 359.624 308.687 359.624ZM327.852 362.33C326.019 362.33 324.574 361.802 323.518 360.746C322.477 359.69 321.956 358.223 321.956 356.346C321.956 355.129 322.184 354.073 322.638 353.178C323.093 352.269 323.731 351.572 324.552 351.088C325.388 350.604 326.364 350.362 327.478 350.362C329.121 350.362 330.382 350.89 331.262 351.946C332.142 353.002 332.582 354.527 332.582 356.522C332.582 356.859 332.575 357.109 332.56 357.27H325.08C325.227 358.047 325.564 358.641 326.092 359.052C326.62 359.448 327.332 359.646 328.226 359.646C328.769 359.646 329.334 359.58 329.92 359.448C330.507 359.301 331.02 359.111 331.46 358.876L331.966 361.362C331.38 361.67 330.727 361.905 330.008 362.066C329.304 362.242 328.586 362.33 327.852 362.33ZM329.612 354.938C329.568 354.307 329.348 353.809 328.952 353.442C328.556 353.061 328.028 352.87 327.368 352.87C326.738 352.87 326.217 353.053 325.806 353.42C325.41 353.787 325.161 354.293 325.058 354.938H329.612ZM344.561 362.33C343.505 362.33 342.683 362.066 342.097 361.538C341.525 360.995 341.239 360.233 341.239 359.25V353.332H339.479V350.67H341.239V348.25C342.28 348.074 343.307 347.942 344.319 347.854V350.67H347.179V353.332H344.319V358.678C344.319 358.986 344.407 359.221 344.583 359.382C344.773 359.543 345.037 359.624 345.375 359.624C345.785 359.624 346.255 359.529 346.783 359.338L347.465 361.67C346.526 362.11 345.558 362.33 344.561 362.33ZM355.162 345.94H358.264V352.32C358.719 351.645 359.24 351.154 359.826 350.846C360.413 350.523 361.088 350.362 361.85 350.362C363.068 350.362 364.021 350.729 364.71 351.462C365.4 352.181 365.744 353.185 365.744 354.476V362H362.642V354.96C362.642 354.373 362.496 353.919 362.202 353.596C361.909 353.259 361.513 353.09 361.014 353.09C360.472 353.09 359.951 353.281 359.452 353.662C358.968 354.029 358.572 354.52 358.264 355.136V362H355.162V345.94ZM379.458 362.33C377.624 362.33 376.18 361.802 375.124 360.746C374.082 359.69 373.562 358.223 373.562 356.346C373.562 355.129 373.789 354.073 374.244 353.178C374.698 352.269 375.336 351.572 376.158 351.088C376.994 350.604 377.969 350.362 379.084 350.362C380.726 350.362 381.988 350.89 382.868 351.946C383.748 353.002 384.188 354.527 384.188 356.522C384.188 356.859 384.18 357.109 384.166 357.27H376.686C376.832 358.047 377.17 358.641 377.698 359.052C378.226 359.448 378.937 359.646 379.832 359.646C380.374 359.646 380.939 359.58 381.526 359.448C382.112 359.301 382.626 359.111 383.066 358.876L383.572 361.362C382.985 361.67 382.332 361.905 381.614 362.066C380.91 362.242 380.191 362.33 379.458 362.33ZM381.218 354.938C381.174 354.307 380.954 353.809 380.558 353.442C380.162 353.061 379.634 352.87 378.974 352.87C378.343 352.87 377.822 353.053 377.412 353.42C377.016 353.787 376.766 354.293 376.664 354.938H381.218ZM392.074 350.67H395.176V352.518H395.352C395.777 351.77 396.195 351.22 396.606 350.868C397.031 350.516 397.559 350.34 398.19 350.34C398.454 350.34 398.674 350.369 398.85 350.428L398.52 353.772C398.139 353.669 397.831 353.618 397.596 353.618C397.259 353.618 396.958 353.684 396.694 353.816C396.445 353.948 396.217 354.124 396.012 354.344C395.821 354.564 395.543 354.901 395.176 355.356V362H392.074V350.67Z" fill="#5A9216"/>
<path d="M111.419 308.028H118.559L130.151 327.642V308.028H135.737V336H128.681L117.005 316.26V336H111.419V308.028ZM154.669 336.546C151.925 336.546 149.503 335.944 147.403 334.74C145.303 333.536 143.665 331.842 142.489 329.658C141.341 327.474 140.767 324.968 140.767 322.14C140.767 319.284 141.341 316.764 142.489 314.58C143.637 312.396 145.261 310.702 147.361 309.498C149.461 308.294 151.897 307.692 154.669 307.692C157.413 307.692 159.835 308.294 161.935 309.498C164.035 310.674 165.659 312.34 166.807 314.496C167.955 316.652 168.529 319.144 168.529 321.972C168.529 324.856 167.955 327.404 166.807 329.616C165.659 331.8 164.035 333.508 161.935 334.74C159.835 335.944 157.413 336.546 154.669 336.546ZM154.669 331.212C156.965 331.212 158.799 330.386 160.171 328.734C161.571 327.082 162.271 324.884 162.271 322.14C162.271 320.348 161.949 318.766 161.305 317.394C160.689 315.994 159.793 314.93 158.617 314.202C157.469 313.446 156.153 313.068 154.669 313.068C153.185 313.068 151.855 313.446 150.679 314.202C149.531 314.93 148.635 315.994 147.991 317.394C147.375 318.766 147.067 320.348 147.067 322.14C147.067 323.932 147.375 325.514 147.991 326.886C148.635 328.258 149.531 329.322 150.679 330.078C151.827 330.834 153.157 331.212 154.669 331.212ZM179.709 316.26L177.945 336H172.527L175.173 308.028H182.733L189.873 328.104L196.803 308.028H204.363L206.925 336H201.465L199.533 316.344L192.141 336.294L187.143 336.756L179.709 316.26ZM219.867 308.028H227.175L237.549 336H231.249L228.981 329.616H217.977L215.835 336H209.619L219.867 308.028ZM227.175 324.408L223.395 313.698L219.741 324.408H227.175ZM245.601 336.042C243.613 336.042 242.129 336.028 241.149 336V308.028C242.353 308 244.131 307.986 246.483 307.986C248.863 307.986 250.641 308 251.817 308.028C254.561 308.056 256.941 308.616 258.957 309.708C261.001 310.772 262.569 312.298 263.661 314.286C264.781 316.274 265.341 318.598 265.341 321.258C265.341 324.17 264.697 326.732 263.409 328.944C262.149 331.156 260.357 332.878 258.033 334.11C255.737 335.342 253.063 335.972 250.011 336C249.031 336.028 247.561 336.042 245.601 336.042ZM249.969 330.708C252.797 330.708 255.023 329.882 256.647 328.23C258.271 326.578 259.083 324.31 259.083 321.426C259.083 318.822 258.383 316.82 256.983 315.42C255.611 314.02 253.623 313.32 251.019 313.32H247.239V330.708H249.969ZM279.191 308.028C280.003 308 281.543 307.986 283.811 307.986C286.107 307.986 287.661 308 288.473 308.028C291.357 308.084 293.625 308.854 295.277 310.338C296.929 311.822 297.755 313.88 297.755 316.512C297.755 318.388 297.335 320.054 296.495 321.51C295.655 322.938 294.465 324.044 292.925 324.828C291.413 325.612 289.691 326.004 287.759 326.004H285.029V336H279.191V308.028ZM287.507 321.048C288.879 321.048 289.943 320.656 290.699 319.872C291.483 319.088 291.875 318.024 291.875 316.68C291.875 314.216 290.517 312.984 287.801 312.984H285.029V321.048H287.507ZM302.58 308.028H308.67V330.708H318.75V336H302.58V308.028ZM331.807 308.028H339.115L349.489 336H343.189L340.921 329.616H329.917L327.775 336H321.559L331.807 308.028ZM339.115 324.408L335.335 313.698L331.681 324.408H339.115ZM353.131 308.028H360.271L371.863 327.642V308.028H377.449V336H370.393L358.717 316.26V336H353.131V308.028ZM391.13 336.546C389.506 336.546 387.952 336.364 386.468 336C385.012 335.636 383.752 335.146 382.688 334.53L383.192 328.902C384.452 329.686 385.768 330.302 387.14 330.75C388.54 331.17 389.828 331.38 391.004 331.38C392.348 331.38 393.44 331.1 394.28 330.54C395.12 329.98 395.54 329.238 395.54 328.314C395.54 327.558 395.26 326.984 394.7 326.592C394.14 326.172 393.258 325.724 392.054 325.248L391.046 324.828C390.906 324.772 390.752 324.716 390.584 324.66C390.416 324.576 390.22 324.492 389.996 324.408C388.428 323.764 387.168 323.162 386.216 322.602C385.264 322.014 384.438 321.202 383.738 320.166C383.066 319.13 382.73 317.786 382.73 316.134C382.73 313.446 383.64 311.332 385.46 309.792C387.28 308.252 389.814 307.482 393.062 307.482C395.526 307.482 398.046 307.986 400.622 308.994L399.698 314.538C398.662 313.95 397.542 313.488 396.338 313.152C395.162 312.816 394.042 312.648 392.978 312.648C391.662 312.648 390.64 312.914 389.912 313.446C389.184 313.95 388.82 314.636 388.82 315.504C388.82 316.26 389.072 316.848 389.576 317.268C390.08 317.688 390.892 318.136 392.012 318.612L393.734 319.284C395.358 319.9 396.702 320.502 397.766 321.09C398.83 321.678 399.74 322.532 400.496 323.652C401.252 324.744 401.63 326.172 401.63 327.936C401.63 330.652 400.706 332.766 398.858 334.278C397.01 335.79 394.434 336.546 391.13 336.546Z" fill="#5A9216"/>
<defs>
<filter id="filter0_d" x="138" y="94.0907" width="101.114" height="110.721" filterUnits="userSpaceOnUse" color-interpolation-filters="sRGB">
<feFlood flood-opacity="0" result="BackgroundImageFix"/>
<feColorMatrix in="SourceAlpha" type="matrix" values="0 0 0 0 0 0 0 0 0 0 0 0 0 0 0 0 0 0 127 0"/>
<feOffset dy="4"/>
<feGaussianBlur stdDeviation="2"/>
<feColorMatrix type="matrix" values="0 0 0 0 1 0 0 0 0 1 0 0 0 0 1 0 0 0 1 0"/>
<feBlend mode="normal" in2="BackgroundImageFix" result="effect1_dropShadow"/>
<feBlend mode="normal" in="SourceGraphic" in2="effect1_dropShadow" result="shape"/>
</filter>
<filter id="filter1_d" x="273.861" y="94.0907" width="101.114" height="110.721" filterUnits="userSpaceOnUse" color-interpolation-filters="sRGB">
<feFlood flood-opacity="0" result="BackgroundImageFix"/>
<feColorMatrix in="SourceAlpha" type="matrix" values="0 0 0 0 0 0 0 0 0 0 0 0 0 0 0 0 0 0 127 0"/>
<feOffset dy="4"/>
<feGaussianBlur stdDeviation="2"/>
<feColorMatrix type="matrix" values="0 0 0 0 1 0 0 0 0 1 0 0 0 0 1 0 0 0 1 0"/>
<feBlend mode="normal" in2="BackgroundImageFix" result="effect1_dropShadow"/>
<feBlend mode="normal" in="SourceGraphic" in2="effect1_dropShadow" result="shape"/>
</filter>
<filter id="filter2_d" x="191.35" y="42.51" width="128.864" height="142.294" filterUnits="userSpaceOnUse" color-interpolation-filters="sRGB">
<feFlood flood-opacity="0" result="BackgroundImageFix"/>
<feColorMatrix in="SourceAlpha" type="matrix" values="0 0 0 0 0 0 0 0 0 0 0 0 0 0 0 0 0 0 127 0"/>
<feOffset dy="4"/>
<feGaussianBlur stdDeviation="2"/>
<feColorMatrix type="matrix" values="0 0 0 0 1 0 0 0 0 1 0 0 0 0 1 0 0 0 1 0"/>
<feBlend mode="normal" in2="BackgroundImageFix" result="effect1_dropShadow"/>
<feBlend mode="normal" in="SourceGraphic" in2="effect1_dropShadow" result="shape"/>
</filter>
</defs>
</svg>
