<svg width="512" height="512" viewBox="0 0 512 512" fill="none" xmlns="http://www.w3.org/2000/svg">
<path d="M91.4416 390.28H98.5336V393.088H91.4416V401.728C91.4416 402.664 91.5136 403.444 91.6576 404.068C91.8016 404.668 92.0176 405.148 92.3056 405.508C92.5936 405.844 92.9536 406.084 93.3856 406.228C93.8176 406.372 94.3216 406.444 94.8976 406.444C95.9056 406.444 96.7096 406.336 97.3096 406.12C97.9336 405.88 98.3656 405.712 98.6056 405.616L99.2536 408.388C98.9176 408.556 98.3296 408.76 97.4896 409C96.6496 409.264 95.6896 409.396 94.6096 409.396C93.3376 409.396 92.2816 409.24 91.4416 408.928C90.6256 408.592 89.9656 408.1 89.4616 407.452C88.9576 406.804 88.5976 406.012 88.3816 405.076C88.1896 404.116 88.0936 403.012 88.0936 401.764V385.06L91.4416 384.484V390.28ZM112.226 389.884C112.514 389.884 112.838 389.908 113.198 389.956C113.582 389.98 113.954 390.028 114.314 390.1C114.674 390.148 114.998 390.208 115.286 390.28C115.598 390.328 115.826 390.376 115.97 390.424L115.394 393.34C115.13 393.244 114.686 393.136 114.062 393.016C113.462 392.872 112.682 392.8 111.722 392.8C111.098 392.8 110.474 392.872 109.85 393.016C109.25 393.136 108.854 393.22 108.662 393.268V409H105.314V391.072C106.106 390.784 107.09 390.52 108.266 390.28C109.442 390.016 110.762 389.884 112.226 389.884ZM128.057 406.588C128.849 406.588 129.545 406.576 130.145 406.552C130.769 406.504 131.285 406.432 131.693 406.336V400.756C131.453 400.636 131.057 400.54 130.505 400.468C129.977 400.372 129.329 400.324 128.561 400.324C128.057 400.324 127.517 400.36 126.941 400.432C126.389 400.504 125.873 400.66 125.393 400.9C124.937 401.116 124.553 401.428 124.241 401.836C123.929 402.22 123.773 402.736 123.773 403.384C123.773 404.584 124.157 405.424 124.925 405.904C125.693 406.36 126.737 406.588 128.057 406.588ZM127.769 389.812C129.113 389.812 130.241 389.992 131.153 390.352C132.089 390.688 132.833 391.18 133.385 391.828C133.961 392.452 134.369 393.208 134.609 394.096C134.849 394.96 134.969 395.92 134.969 396.976V408.676C134.681 408.724 134.273 408.796 133.745 408.892C133.241 408.964 132.665 409.036 132.017 409.108C131.369 409.18 130.661 409.24 129.893 409.288C129.149 409.36 128.405 409.396 127.661 409.396C126.605 409.396 125.633 409.288 124.745 409.072C123.857 408.856 123.089 408.52 122.441 408.064C121.793 407.584 121.289 406.96 120.929 406.192C120.569 405.424 120.389 404.5 120.389 403.42C120.389 402.388 120.593 401.5 121.001 400.756C121.433 400.012 122.009 399.412 122.729 398.956C123.449 398.5 124.289 398.164 125.249 397.948C126.209 397.732 127.217 397.624 128.273 397.624C128.609 397.624 128.957 397.648 129.317 397.696C129.677 397.72 130.013 397.768 130.325 397.84C130.661 397.888 130.949 397.936 131.189 397.984C131.429 398.032 131.597 398.068 131.693 398.092V397.156C131.693 396.604 131.633 396.064 131.513 395.536C131.393 394.984 131.177 394.504 130.865 394.096C130.553 393.664 130.121 393.328 129.569 393.088C129.041 392.824 128.345 392.692 127.481 392.692C126.377 392.692 125.405 392.776 124.565 392.944C123.749 393.088 123.137 393.244 122.729 393.412L122.333 390.64C122.765 390.448 123.485 390.268 124.493 390.1C125.501 389.908 126.593 389.812 127.769 389.812ZM157.138 390.28C156.202 393.784 155.098 397.144 153.826 400.36C152.578 403.576 151.366 406.456 150.19 409H147.166C145.99 406.456 144.766 403.576 143.494 400.36C142.246 397.144 141.154 393.784 140.218 390.28H143.818C144.106 391.456 144.442 392.716 144.826 394.06C145.234 395.38 145.654 396.7 146.086 398.02C146.542 399.316 146.998 400.576 147.454 401.8C147.91 403.024 148.342 404.116 148.75 405.076C149.158 404.116 149.59 403.024 150.046 401.8C150.502 400.576 150.946 399.316 151.378 398.02C151.834 396.7 152.254 395.38 152.638 394.06C153.046 392.716 153.394 391.456 153.682 390.28H157.138ZM161.576 399.676C161.576 398.02 161.816 396.58 162.296 395.356C162.776 394.108 163.412 393.076 164.204 392.26C164.996 391.444 165.908 390.832 166.94 390.424C167.972 390.016 169.028 389.812 170.108 389.812C172.628 389.812 174.56 390.604 175.904 392.188C177.248 393.748 177.92 396.136 177.92 399.352C177.92 399.496 177.92 399.688 177.92 399.928C177.92 400.144 177.908 400.348 177.884 400.54H165.068C165.212 402.484 165.776 403.96 166.76 404.968C167.744 405.976 169.28 406.48 171.368 406.48C172.544 406.48 173.528 406.384 174.32 406.192C175.136 405.976 175.748 405.772 176.156 405.58L176.624 408.388C176.216 408.604 175.496 408.832 174.464 409.072C173.456 409.312 172.304 409.432 171.008 409.432C169.376 409.432 167.96 409.192 166.76 408.712C165.584 408.208 164.612 407.524 163.844 406.66C163.076 405.796 162.5 404.776 162.116 403.6C161.756 402.4 161.576 401.092 161.576 399.676ZM174.428 397.84C174.452 396.328 174.068 395.092 173.276 394.132C172.508 393.148 171.44 392.656 170.072 392.656C169.304 392.656 168.62 392.812 168.02 393.124C167.444 393.412 166.952 393.796 166.544 394.276C166.136 394.756 165.812 395.308 165.572 395.932C165.356 396.556 165.212 397.192 165.14 397.84H174.428ZM190.865 409.36C188.801 409.312 187.337 408.868 186.473 408.028C185.609 407.188 185.177 405.88 185.177 404.104V381.64L188.525 381.064V403.564C188.525 404.116 188.573 404.572 188.669 404.932C188.765 405.292 188.921 405.58 189.137 405.796C189.353 406.012 189.641 406.18 190.001 406.3C190.361 406.396 190.805 406.48 191.333 406.552L190.865 409.36ZM200.961 409H197.613V390.28H200.961V409ZM199.269 386.896C198.669 386.896 198.153 386.704 197.721 386.32C197.313 385.912 197.109 385.372 197.109 384.7C197.109 384.028 197.313 383.5 197.721 383.116C198.153 382.708 198.669 382.504 199.269 382.504C199.869 382.504 200.373 382.708 200.781 383.116C201.213 383.5 201.429 384.028 201.429 384.7C201.429 385.372 201.213 385.912 200.781 386.32C200.373 386.704 199.869 386.896 199.269 386.896ZM209.239 390.82C210.007 390.628 211.027 390.424 212.299 390.208C213.571 389.992 215.035 389.884 216.691 389.884C218.179 389.884 219.415 390.1 220.399 390.532C221.383 390.94 222.163 391.528 222.739 392.296C223.339 393.04 223.759 393.94 223.999 394.996C224.239 396.052 224.359 397.216 224.359 398.488V409H221.011V399.208C221.011 398.056 220.927 397.072 220.759 396.256C220.615 395.44 220.363 394.78 220.003 394.276C219.643 393.772 219.163 393.412 218.563 393.196C217.963 392.956 217.219 392.836 216.331 392.836C215.971 392.836 215.599 392.848 215.215 392.872C214.831 392.896 214.459 392.932 214.099 392.98C213.763 393.004 213.451 393.04 213.163 393.088C212.899 393.136 212.707 393.172 212.587 393.196V409H209.239V390.82ZM244.167 407.128C243.879 407.32 243.315 407.572 242.475 407.884C241.659 408.172 240.699 408.316 239.595 408.316C238.467 408.316 237.399 408.136 236.391 407.776C235.407 407.416 234.543 406.864 233.799 406.12C233.055 405.352 232.467 404.404 232.035 403.276C231.603 402.148 231.387 400.804 231.387 399.244C231.387 397.876 231.591 396.628 231.999 395.5C232.407 394.348 232.995 393.364 233.763 392.548C234.555 391.708 235.515 391.06 236.643 390.604C237.771 390.124 239.043 389.884 240.459 389.884C242.019 389.884 243.375 390.004 244.527 390.244C245.703 390.46 246.687 390.664 247.479 390.856V407.56C247.479 410.44 246.735 412.528 245.247 413.824C243.759 415.12 241.503 415.768 238.479 415.768C237.303 415.768 236.187 415.672 235.131 415.48C234.099 415.288 233.199 415.06 232.431 414.796L233.043 411.88C233.715 412.144 234.531 412.372 235.491 412.564C236.475 412.78 237.495 412.888 238.551 412.888C240.543 412.888 241.971 412.492 242.835 411.7C243.723 410.908 244.167 409.648 244.167 407.92V407.128ZM244.131 393.232C243.795 393.136 243.339 393.052 242.763 392.98C242.211 392.884 241.455 392.836 240.495 392.836C238.695 392.836 237.303 393.424 236.319 394.6C235.359 395.776 234.879 397.336 234.879 399.28C234.879 400.36 235.011 401.284 235.275 402.052C235.563 402.82 235.935 403.456 236.391 403.96C236.871 404.464 237.411 404.836 238.011 405.076C238.635 405.316 239.271 405.436 239.919 405.436C240.807 405.436 241.623 405.316 242.367 405.076C243.111 404.812 243.699 404.512 244.131 404.176V393.232ZM269.747 390.28H276.839V393.088H269.747V401.728C269.747 402.664 269.819 403.444 269.963 404.068C270.107 404.668 270.323 405.148 270.611 405.508C270.899 405.844 271.259 406.084 271.691 406.228C272.123 406.372 272.627 406.444 273.203 406.444C274.211 406.444 275.015 406.336 275.615 406.12C276.239 405.88 276.671 405.712 276.911 405.616L277.559 408.388C277.223 408.556 276.635 408.76 275.795 409C274.955 409.264 273.995 409.396 272.915 409.396C271.643 409.396 270.587 409.24 269.747 408.928C268.931 408.592 268.271 408.1 267.767 407.452C267.263 406.804 266.903 406.012 266.687 405.076C266.495 404.116 266.399 403.012 266.399 401.764V385.06L269.747 384.484V390.28ZM299.651 399.64C299.651 401.128 299.435 402.472 299.003 403.672C298.571 404.872 297.959 405.904 297.167 406.768C296.399 407.632 295.475 408.304 294.395 408.784C293.315 409.24 292.139 409.468 290.867 409.468C289.595 409.468 288.419 409.24 287.339 408.784C286.259 408.304 285.323 407.632 284.531 406.768C283.763 405.904 283.163 404.872 282.731 403.672C282.299 402.472 282.083 401.128 282.083 399.64C282.083 398.176 282.299 396.844 282.731 395.644C283.163 394.42 283.763 393.376 284.531 392.512C285.323 391.648 286.259 390.988 287.339 390.532C288.419 390.052 289.595 389.812 290.867 389.812C292.139 389.812 293.315 390.052 294.395 390.532C295.475 390.988 296.399 391.648 297.167 392.512C297.959 393.376 298.571 394.42 299.003 395.644C299.435 396.844 299.651 398.176 299.651 399.64ZM296.159 399.64C296.159 397.528 295.679 395.86 294.719 394.636C293.783 393.388 292.499 392.764 290.867 392.764C289.235 392.764 287.939 393.388 286.979 394.636C286.043 395.86 285.575 397.528 285.575 399.64C285.575 401.752 286.043 403.432 286.979 404.68C287.939 405.904 289.235 406.516 290.867 406.516C292.499 406.516 293.783 405.904 294.719 404.68C295.679 403.432 296.159 401.752 296.159 399.64ZM318.618 407.128C318.33 407.32 317.766 407.572 316.926 407.884C316.11 408.172 315.15 408.316 314.046 408.316C312.918 408.316 311.85 408.136 310.842 407.776C309.858 407.416 308.994 406.864 308.25 406.12C307.506 405.352 306.918 404.404 306.486 403.276C306.054 402.148 305.838 400.804 305.838 399.244C305.838 397.876 306.042 396.628 306.45 395.5C306.858 394.348 307.446 393.364 308.214 392.548C309.006 391.708 309.966 391.06 311.094 390.604C312.222 390.124 313.494 389.884 314.91 389.884C316.47 389.884 317.826 390.004 318.978 390.244C320.154 390.46 321.138 390.664 321.93 390.856V407.56C321.93 410.44 321.186 412.528 319.698 413.824C318.21 415.12 315.954 415.768 312.93 415.768C311.754 415.768 310.638 415.672 309.582 415.48C308.55 415.288 307.65 415.06 306.882 414.796L307.494 411.88C308.166 412.144 308.982 412.372 309.942 412.564C310.926 412.78 311.946 412.888 313.002 412.888C314.994 412.888 316.422 412.492 317.286 411.7C318.174 410.908 318.618 409.648 318.618 407.92V407.128ZM318.582 393.232C318.246 393.136 317.79 393.052 317.214 392.98C316.662 392.884 315.906 392.836 314.946 392.836C313.146 392.836 311.754 393.424 310.77 394.6C309.81 395.776 309.33 397.336 309.33 399.28C309.33 400.36 309.462 401.284 309.726 402.052C310.014 402.82 310.386 403.456 310.842 403.96C311.322 404.464 311.862 404.836 312.462 405.076C313.086 405.316 313.722 405.436 314.37 405.436C315.258 405.436 316.074 405.316 316.818 405.076C317.562 404.812 318.15 404.512 318.582 404.176V393.232ZM329.17 399.676C329.17 398.02 329.41 396.58 329.89 395.356C330.37 394.108 331.006 393.076 331.798 392.26C332.59 391.444 333.502 390.832 334.534 390.424C335.566 390.016 336.622 389.812 337.702 389.812C340.222 389.812 342.154 390.604 343.498 392.188C344.842 393.748 345.514 396.136 345.514 399.352C345.514 399.496 345.514 399.688 345.514 399.928C345.514 400.144 345.502 400.348 345.478 400.54H332.662C332.806 402.484 333.37 403.96 334.354 404.968C335.338 405.976 336.874 406.48 338.962 406.48C340.138 406.48 341.122 406.384 341.914 406.192C342.73 405.976 343.342 405.772 343.75 405.58L344.218 408.388C343.81 408.604 343.09 408.832 342.058 409.072C341.05 409.312 339.898 409.432 338.602 409.432C336.97 409.432 335.554 409.192 334.354 408.712C333.178 408.208 332.206 407.524 331.438 406.66C330.67 405.796 330.094 404.776 329.71 403.6C329.35 402.4 329.17 401.092 329.17 399.676ZM342.022 397.84C342.046 396.328 341.662 395.092 340.87 394.132C340.102 393.148 339.034 392.656 337.666 392.656C336.898 392.656 336.214 392.812 335.614 393.124C335.038 393.412 334.546 393.796 334.138 394.276C333.73 394.756 333.406 395.308 333.166 395.932C332.95 396.556 332.806 397.192 332.734 397.84H342.022ZM355.976 390.28H363.068V393.088H355.976V401.728C355.976 402.664 356.048 403.444 356.192 404.068C356.336 404.668 356.552 405.148 356.84 405.508C357.128 405.844 357.488 406.084 357.92 406.228C358.352 406.372 358.856 406.444 359.432 406.444C360.44 406.444 361.244 406.336 361.844 406.12C362.468 405.88 362.9 405.712 363.14 405.616L363.788 408.388C363.452 408.556 362.864 408.76 362.024 409C361.184 409.264 360.224 409.396 359.144 409.396C357.872 409.396 356.816 409.24 355.976 408.928C355.16 408.592 354.5 408.1 353.996 407.452C353.492 406.804 353.132 406.012 352.916 405.076C352.724 404.116 352.628 403.012 352.628 401.764V385.06L355.976 384.484V390.28ZM369.848 409V381.64L373.196 381.064V390.64C373.82 390.4 374.48 390.22 375.176 390.1C375.896 389.956 376.604 389.884 377.3 389.884C378.788 389.884 380.024 390.1 381.008 390.532C381.992 390.94 382.772 391.528 383.348 392.296C383.948 393.04 384.368 393.94 384.608 394.996C384.848 396.052 384.968 397.216 384.968 398.488V409H381.62V399.208C381.62 398.056 381.536 397.072 381.368 396.256C381.224 395.44 380.972 394.78 380.612 394.276C380.252 393.772 379.772 393.412 379.172 393.196C378.572 392.956 377.828 392.836 376.94 392.836C376.58 392.836 376.208 392.86 375.824 392.908C375.44 392.956 375.068 393.016 374.708 393.088C374.372 393.136 374.06 393.196 373.772 393.268C373.508 393.34 373.316 393.4 373.196 393.448V409H369.848ZM391.89 399.676C391.89 398.02 392.13 396.58 392.61 395.356C393.09 394.108 393.726 393.076 394.518 392.26C395.31 391.444 396.222 390.832 397.254 390.424C398.286 390.016 399.342 389.812 400.422 389.812C402.942 389.812 404.874 390.604 406.218 392.188C407.562 393.748 408.234 396.136 408.234 399.352C408.234 399.496 408.234 399.688 408.234 399.928C408.234 400.144 408.222 400.348 408.198 400.54H395.382C395.526 402.484 396.09 403.96 397.074 404.968C398.058 405.976 399.594 406.48 401.682 406.48C402.858 406.48 403.842 406.384 404.634 406.192C405.45 405.976 406.062 405.772 406.47 405.58L406.938 408.388C406.53 408.604 405.81 408.832 404.778 409.072C403.77 409.312 402.618 409.432 401.322 409.432C399.69 409.432 398.274 409.192 397.074 408.712C395.898 408.208 394.926 407.524 394.158 406.66C393.39 405.796 392.814 404.776 392.43 403.6C392.07 402.4 391.89 401.092 391.89 399.676ZM404.742 397.84C404.766 396.328 404.382 395.092 403.59 394.132C402.822 393.148 401.754 392.656 400.386 392.656C399.618 392.656 398.934 392.812 398.334 393.124C397.758 393.412 397.266 393.796 396.858 394.276C396.45 394.756 396.126 395.308 395.886 395.932C395.67 396.556 395.526 397.192 395.454 397.84H404.742ZM422.476 389.884C422.764 389.884 423.088 389.908 423.448 389.956C423.832 389.98 424.204 390.028 424.564 390.1C424.924 390.148 425.248 390.208 425.536 390.28C425.848 390.328 426.076 390.376 426.22 390.424L425.644 393.34C425.38 393.244 424.936 393.136 424.312 393.016C423.712 392.872 422.932 392.8 421.972 392.8C421.348 392.8 420.724 392.872 420.1 393.016C419.5 393.136 419.104 393.22 418.912 393.268V409H415.564V391.072C416.356 390.784 417.34 390.52 418.516 390.28C419.692 390.016 421.012 389.884 422.476 389.884Z" fill="#A49F9F"/>
<path d="M75.3125 361C73.7258 358.34 71.9525 355.493 69.9925 352.46C68.0325 349.38 66.0025 346.3 63.9025 343.22C61.8025 340.093 59.6558 337.083 57.4625 334.19C55.3158 331.25 53.2625 328.613 51.3025 326.28V361H42.6225V312.49H49.8325C51.6992 314.45 53.7058 316.783 55.8525 319.49C57.9992 322.15 60.1458 324.927 62.2925 327.82C64.4858 330.713 66.5858 333.63 68.5925 336.57C70.6458 339.463 72.4658 342.17 74.0525 344.69V312.49H82.8025V361H75.3125ZM128.529 342.66C128.529 345.553 128.109 348.19 127.269 350.57C126.429 352.95 125.239 354.98 123.699 356.66C122.159 358.34 120.292 359.647 118.099 360.58C115.952 361.513 113.572 361.98 110.959 361.98C108.346 361.98 105.966 361.513 103.819 360.58C101.672 359.647 99.8289 358.34 98.2889 356.66C96.7489 354.98 95.5356 352.95 94.6489 350.57C93.8089 348.19 93.3889 345.553 93.3889 342.66C93.3889 339.767 93.8089 337.153 94.6489 334.82C95.5356 332.44 96.7489 330.41 98.2889 328.73C99.8756 327.05 101.742 325.767 103.889 324.88C106.036 323.947 108.392 323.48 110.959 323.48C113.526 323.48 115.882 323.947 118.029 324.88C120.222 325.767 122.089 327.05 123.629 328.73C125.169 330.41 126.359 332.44 127.199 334.82C128.086 337.153 128.529 339.767 128.529 342.66ZM119.849 342.66C119.849 339.02 119.056 336.15 117.469 334.05C115.929 331.903 113.759 330.83 110.959 330.83C108.159 330.83 105.966 331.903 104.379 334.05C102.839 336.15 102.069 339.02 102.069 342.66C102.069 346.347 102.839 349.263 104.379 351.41C105.966 353.557 108.159 354.63 110.959 354.63C113.759 354.63 115.929 353.557 117.469 351.41C119.056 349.263 119.849 346.347 119.849 342.66ZM159.515 341.75C159.515 337.923 159.025 335.17 158.045 333.49C157.112 331.763 155.338 330.9 152.725 330.9C151.792 330.9 150.765 330.97 149.645 331.11C148.525 331.25 147.685 331.367 147.125 331.46V361H138.655V325.58C140.288 325.113 142.412 324.67 145.025 324.25C147.685 323.83 150.485 323.62 153.425 323.62C155.945 323.62 157.998 323.947 159.585 324.6C161.218 325.253 162.572 326.117 163.645 327.19C164.158 326.817 164.812 326.42 165.605 326C166.398 325.58 167.285 325.207 168.265 324.88C169.245 324.507 170.272 324.203 171.345 323.97C172.465 323.737 173.585 323.62 174.705 323.62C177.552 323.62 179.885 324.04 181.705 324.88C183.572 325.673 185.018 326.817 186.045 328.31C187.118 329.757 187.842 331.53 188.215 333.63C188.635 335.683 188.845 337.947 188.845 340.42V361H180.375V341.75C180.375 337.923 179.908 335.17 178.975 333.49C178.042 331.763 176.245 330.9 173.585 330.9C172.232 330.9 170.948 331.133 169.735 331.6C168.522 332.02 167.612 332.44 167.005 332.86C167.378 334.027 167.635 335.263 167.775 336.57C167.915 337.877 167.985 339.277 167.985 340.77V361H159.515V341.75ZM213.501 355.05C216.115 355.05 218.098 354.91 219.451 354.63V345.25C218.985 345.11 218.308 344.97 217.421 344.83C216.535 344.69 215.555 344.62 214.481 344.62C213.548 344.62 212.591 344.69 211.611 344.83C210.678 344.97 209.815 345.227 209.021 345.6C208.275 345.973 207.668 346.51 207.201 347.21C206.735 347.863 206.501 348.703 206.501 349.73C206.501 351.737 207.131 353.137 208.391 353.93C209.651 354.677 211.355 355.05 213.501 355.05ZM212.801 323.48C215.601 323.48 217.958 323.83 219.871 324.53C221.785 325.23 223.301 326.21 224.421 327.47C225.588 328.73 226.405 330.27 226.871 332.09C227.385 333.863 227.641 335.823 227.641 337.97V360.16C226.335 360.44 224.351 360.767 221.691 361.14C219.078 361.56 216.115 361.77 212.801 361.77C210.608 361.77 208.601 361.56 206.781 361.14C204.961 360.72 203.398 360.043 202.091 359.11C200.831 358.177 199.828 356.963 199.081 355.47C198.381 353.977 198.031 352.133 198.031 349.94C198.031 347.84 198.428 346.067 199.221 344.62C200.061 343.173 201.181 342.007 202.581 341.12C203.981 340.187 205.591 339.533 207.411 339.16C209.278 338.74 211.215 338.53 213.221 338.53C214.155 338.53 215.135 338.6 216.161 338.74C217.188 338.833 218.285 339.02 219.451 339.3V337.9C219.451 336.92 219.335 335.987 219.101 335.1C218.868 334.213 218.448 333.443 217.841 332.79C217.281 332.09 216.511 331.553 215.531 331.18C214.598 330.807 213.408 330.62 211.961 330.62C210.001 330.62 208.205 330.76 206.571 331.04C204.938 331.32 203.608 331.647 202.581 332.02L201.531 325.16C202.605 324.787 204.168 324.413 206.221 324.04C208.275 323.667 210.468 323.48 212.801 323.48ZM246.064 342.59C246.064 346.323 246.951 349.263 248.724 351.41C250.497 353.51 252.947 354.56 256.074 354.56C257.427 354.56 258.571 354.513 259.504 354.42C260.484 354.28 261.277 354.14 261.884 354V333C261.137 332.487 260.134 332.02 258.874 331.6C257.661 331.133 256.354 330.9 254.954 330.9C251.874 330.9 249.611 331.95 248.164 334.05C246.764 336.15 246.064 338.997 246.064 342.59ZM270.354 359.88C268.674 360.393 266.551 360.86 263.984 361.28C261.464 361.7 258.804 361.91 256.004 361.91C253.111 361.91 250.521 361.467 248.234 360.58C245.947 359.693 243.987 358.433 242.354 356.8C240.767 355.12 239.531 353.113 238.644 350.78C237.804 348.4 237.384 345.74 237.384 342.8C237.384 339.907 237.734 337.293 238.434 334.96C239.181 332.58 240.254 330.55 241.654 328.87C243.054 327.19 244.757 325.907 246.764 325.02C248.771 324.087 251.081 323.62 253.694 323.62C255.467 323.62 257.031 323.83 258.384 324.25C259.737 324.67 260.904 325.137 261.884 325.65V308.08L270.354 306.68V359.88ZM314.391 312C321.438 312 326.828 313.283 330.561 315.85C334.341 318.417 336.231 322.43 336.231 327.89C336.231 330.737 335.718 333.187 334.691 335.24C333.711 337.247 332.264 338.903 330.351 340.21C328.438 341.47 326.104 342.403 323.351 343.01C320.598 343.617 317.448 343.92 313.901 343.92H309.491V361H300.671V313.19C302.724 312.723 304.988 312.42 307.461 312.28C309.981 312.093 312.291 312 314.391 312ZM315.021 319.63C312.781 319.63 310.938 319.7 309.491 319.84V336.36H313.761C318.008 336.36 321.274 335.777 323.561 334.61C325.848 333.397 326.991 331.133 326.991 327.82C326.991 326.233 326.688 324.903 326.081 323.83C325.474 322.757 324.634 321.917 323.561 321.31C322.488 320.703 321.204 320.283 319.711 320.05C318.264 319.77 316.701 319.63 315.021 319.63ZM358.004 361.7C355.484 361.653 353.384 361.373 351.704 360.86C350.071 360.347 348.764 359.623 347.784 358.69C346.804 357.71 346.104 356.52 345.684 355.12C345.311 353.673 345.124 352.04 345.124 350.22V308.08L353.594 306.68V348.61C353.594 349.637 353.664 350.5 353.804 351.2C353.991 351.9 354.294 352.507 354.714 353.02C355.134 353.487 355.694 353.86 356.394 354.14C357.141 354.373 358.074 354.56 359.194 354.7L358.004 361.7ZM380.325 355.05C382.939 355.05 384.922 354.91 386.275 354.63V345.25C385.809 345.11 385.132 344.97 384.245 344.83C383.359 344.69 382.379 344.62 381.305 344.62C380.372 344.62 379.415 344.69 378.435 344.83C377.502 344.97 376.639 345.227 375.845 345.6C375.099 345.973 374.492 346.51 374.025 347.21C373.559 347.863 373.325 348.703 373.325 349.73C373.325 351.737 373.955 353.137 375.215 353.93C376.475 354.677 378.179 355.05 380.325 355.05ZM379.625 323.48C382.425 323.48 384.782 323.83 386.695 324.53C388.609 325.23 390.125 326.21 391.245 327.47C392.412 328.73 393.229 330.27 393.695 332.09C394.209 333.863 394.465 335.823 394.465 337.97V360.16C393.159 360.44 391.175 360.767 388.515 361.14C385.902 361.56 382.939 361.77 379.625 361.77C377.432 361.77 375.425 361.56 373.605 361.14C371.785 360.72 370.222 360.043 368.915 359.11C367.655 358.177 366.652 356.963 365.905 355.47C365.205 353.977 364.855 352.133 364.855 349.94C364.855 347.84 365.252 346.067 366.045 344.62C366.885 343.173 368.005 342.007 369.405 341.12C370.805 340.187 372.415 339.533 374.235 339.16C376.102 338.74 378.039 338.53 380.045 338.53C380.979 338.53 381.959 338.6 382.985 338.74C384.012 338.833 385.109 339.02 386.275 339.3V337.9C386.275 336.92 386.159 335.987 385.925 335.1C385.692 334.213 385.272 333.443 384.665 332.79C384.105 332.09 383.335 331.553 382.355 331.18C381.422 330.807 380.232 330.62 378.785 330.62C376.825 330.62 375.029 330.76 373.395 331.04C371.762 331.32 370.432 331.647 369.405 332.02L368.355 325.16C369.429 324.787 370.992 324.413 373.045 324.04C375.099 323.667 377.292 323.48 379.625 323.48ZM406.238 325.58C407.871 325.113 409.995 324.67 412.608 324.25C415.221 323.83 418.115 323.62 421.288 323.62C424.275 323.62 426.771 324.04 428.778 324.88C430.785 325.673 432.371 326.817 433.538 328.31C434.751 329.757 435.591 331.53 436.058 333.63C436.571 335.683 436.828 337.947 436.828 340.42V361H428.358V341.75C428.358 339.79 428.218 338.133 427.938 336.78C427.705 335.38 427.285 334.26 426.678 333.42C426.118 332.533 425.325 331.903 424.298 331.53C423.318 331.11 422.105 330.9 420.658 330.9C419.585 330.9 418.465 330.97 417.298 331.11C416.131 331.25 415.268 331.367 414.708 331.46V361H406.238V325.58ZM457.755 354.91C459.995 354.91 461.629 354.653 462.655 354.14C463.682 353.58 464.195 352.647 464.195 351.34C464.195 350.127 463.635 349.123 462.515 348.33C461.442 347.537 459.645 346.673 457.125 345.74C455.585 345.18 454.162 344.597 452.855 343.99C451.595 343.337 450.499 342.59 449.565 341.75C448.632 340.91 447.885 339.907 447.325 338.74C446.812 337.527 446.555 336.057 446.555 334.33C446.555 330.97 447.792 328.333 450.265 326.42C452.739 324.46 456.099 323.48 460.345 323.48C462.492 323.48 464.545 323.69 466.505 324.11C468.465 324.483 469.935 324.857 470.915 325.23L469.375 332.09C468.442 331.67 467.252 331.297 465.805 330.97C464.359 330.597 462.679 330.41 460.765 330.41C459.039 330.41 457.639 330.713 456.565 331.32C455.492 331.88 454.955 332.767 454.955 333.98C454.955 334.587 455.049 335.123 455.235 335.59C455.469 336.057 455.842 336.5 456.355 336.92C456.869 337.293 457.545 337.69 458.385 338.11C459.225 338.483 460.252 338.88 461.465 339.3C463.472 340.047 465.175 340.793 466.575 341.54C467.975 342.24 469.119 343.057 470.005 343.99C470.939 344.877 471.615 345.903 472.035 347.07C472.455 348.237 472.665 349.637 472.665 351.27C472.665 354.77 471.359 357.43 468.745 359.25C466.179 361.023 462.492 361.91 457.685 361.91C454.465 361.91 451.875 361.63 449.915 361.07C447.955 360.557 446.579 360.137 445.785 359.81L447.255 352.74C448.515 353.253 450.009 353.743 451.735 354.21C453.509 354.677 455.515 354.91 457.755 354.91Z" fill="#5A9216"/>
<path d="M197.77 177.624C204.563 202.977 185.818 260.78 166.061 272.224C143.23 272.191 98.094 231.505 91.3006 206.152C84.5071 180.799 102.834 153.859 132.235 145.981C161.635 138.104 190.977 152.27 197.77 177.624Z" fill="#FFB300"/>
<path d="M197.77 177.624C204.563 202.977 185.818 260.78 166.061 272.224C143.23 272.191 98.094 231.505 91.3006 206.152C84.5071 180.799 102.834 153.859 132.235 145.981C161.635 138.104 190.977 152.27 197.77 177.624Z" fill="#FFB300"/>
<circle cx="144.665" cy="192.372" r="20.4704" transform="rotate(-15 144.665 192.372)" fill="white"/>
<path d="M411.699 206.152C404.906 231.505 359.77 272.191 336.939 272.224C317.182 260.78 298.437 202.977 305.23 177.624C312.023 152.27 341.365 138.104 370.765 145.981C400.166 153.859 418.493 180.799 411.699 206.152Z" fill="#8BC34A"/>
<path d="M411.699 206.152C404.906 231.505 359.77 272.191 336.939 272.224C317.182 260.78 298.437 202.977 305.23 177.624C312.023 152.27 341.365 138.104 370.765 145.981C400.166 153.859 418.493 180.799 411.699 206.152Z" fill="#8BC34A"/>
<circle cx="358.335" cy="192.372" r="20.4704" transform="rotate(15 358.335 192.372)" fill="white"/>
<path d="M341.491 127.579C341.491 168.215 286.859 247.145 250.437 256.342C214.016 247.145 159.383 168.215 159.383 127.579C159.383 86.9424 200.149 54 250.437 54C300.725 54 341.491 86.9424 341.491 127.579Z" fill="#FD1313"/>
<path d="M341.491 127.579C341.491 168.215 286.859 247.145 250.437 256.342C214.016 247.145 159.383 168.215 159.383 127.579C159.383 86.9424 200.149 54 250.437 54C300.725 54 341.491 86.9424 341.491 127.579Z" fill="#FD1313"/>
<circle cx="250.319" cy="128.402" r="33.4612" fill="white"/>
<path d="M281.418 176.035C257.95 193.703 244.515 194.197 220.007 176.035" stroke="white" stroke-width="3" stroke-linecap="round" stroke-linejoin="round"/>
</svg>
