<svg width="512" height="512" viewBox="0 0 512 512" fill="none" xmlns="http://www.w3.org/2000/svg">
<path d="M85.6263 404.54C83.8983 404.54 82.5543 404.108 81.5943 403.244C80.6583 402.356 80.1903 401.108 80.1903 399.5V389.816H77.3103V385.46H80.1903V381.5C81.8943 381.212 83.5743 380.996 85.2303 380.852V385.46H89.9103V389.816H85.2303V398.564C85.2303 399.068 85.3743 399.452 85.6623 399.716C85.9743 399.98 86.4063 400.112 86.9583 400.112C87.6303 400.112 88.3983 399.956 89.2623 399.644L90.3783 403.46C88.8423 404.18 87.2583 404.54 85.6263 404.54ZM96.6027 385.46H101.679V388.484H101.967C102.663 387.26 103.347 386.36 104.019 385.784C104.715 385.208 105.579 384.92 106.611 384.92C107.043 384.92 107.403 384.968 107.691 385.064L107.151 390.536C106.527 390.368 106.023 390.284 105.639 390.284C105.087 390.284 104.595 390.392 104.163 390.608C103.755 390.824 103.383 391.112 103.047 391.472C102.735 391.832 102.279 392.384 101.679 393.128V404H96.6027V385.46ZM118.125 404.54C116.205 404.54 114.681 403.724 113.553 402.092C112.425 400.46 111.861 398.24 111.861 395.432C111.861 392.024 112.725 389.432 114.453 387.656C116.181 385.856 118.665 384.956 121.905 384.956C123.729 384.956 125.865 385.244 128.313 385.82V404H123.489L123.597 401.048H123.453C122.829 402.176 122.061 403.04 121.149 403.64C120.261 404.24 119.253 404.54 118.125 404.54ZM119.205 400.112C119.949 400.112 120.681 399.716 121.401 398.924C122.121 398.132 122.793 397.076 123.417 395.756V389.708C122.649 389.492 121.881 389.384 121.113 389.384C119.673 389.384 118.581 389.876 117.837 390.86C117.117 391.844 116.757 393.296 116.757 395.216C116.757 396.728 116.973 397.928 117.405 398.816C117.837 399.68 118.437 400.112 119.205 400.112ZM133.582 385.532L139.126 385.028L143.23 398.384L147.154 385.46H152.59L146.074 404H140.134L133.582 385.532ZM166.17 404.54C163.17 404.54 160.806 403.676 159.078 401.948C157.374 400.22 156.522 397.82 156.522 394.748C156.522 392.756 156.894 391.028 157.638 389.564C158.382 388.076 159.426 386.936 160.77 386.144C162.138 385.352 163.734 384.956 165.558 384.956C168.246 384.956 170.31 385.82 171.75 387.548C173.19 389.276 173.91 391.772 173.91 395.036C173.91 395.588 173.898 395.996 173.874 396.26H161.634C161.874 397.532 162.426 398.504 163.29 399.176C164.154 399.824 165.318 400.148 166.782 400.148C167.67 400.148 168.594 400.04 169.554 399.824C170.514 399.584 171.354 399.272 172.074 398.888L172.902 402.956C171.942 403.46 170.874 403.844 169.698 404.108C168.546 404.396 167.37 404.54 166.17 404.54ZM169.05 392.444C168.978 391.412 168.618 390.596 167.97 389.996C167.322 389.372 166.458 389.06 165.378 389.06C164.346 389.06 163.494 389.36 162.822 389.96C162.174 390.56 161.766 391.388 161.598 392.444H169.05ZM179.047 399.644H182.323V382.04H179.227V377.72H187.399V399.644H190.675V404H179.047V399.644ZM198.688 377.72H204.484V382.4H198.688V377.72ZM195.88 399.644H199.336V389.816H195.88V385.46H204.412V399.644H207.508V404H195.88V399.644ZM213.392 385.46H218.36V388.664C219.128 387.392 220.016 386.456 221.024 385.856C222.032 385.256 223.208 384.956 224.552 384.956C226.544 384.956 228.104 385.556 229.232 386.756C230.36 387.932 230.924 389.576 230.924 391.688V404H225.848V392.48C225.848 391.52 225.608 390.776 225.128 390.248C224.648 389.696 224 389.42 223.184 389.42C222.224 389.42 221.312 389.78 220.448 390.5C219.584 391.22 218.924 392.132 218.468 393.236V404H213.392V385.46ZM243.967 412.172C241.831 412.172 239.743 411.896 237.703 411.344L238.675 406.88C240.979 407.552 242.899 407.888 244.435 407.888C245.659 407.888 246.595 407.696 247.243 407.312C247.915 406.928 248.383 406.328 248.647 405.512C248.935 404.696 249.103 403.58 249.151 402.164H249.043C248.371 402.932 247.591 403.52 246.703 403.928C245.815 404.336 244.843 404.54 243.787 404.54C241.675 404.54 240.019 403.748 238.819 402.164C237.643 400.556 237.055 398.336 237.055 395.504C237.055 392.072 237.931 389.456 239.683 387.656C241.459 385.856 243.991 384.956 247.279 384.956C249.175 384.956 251.431 385.244 254.047 385.82C254.095 390.764 254.119 394.484 254.119 396.98C254.119 399.212 254.107 400.892 254.083 402.02C254.035 405.428 253.171 407.972 251.491 409.652C249.835 411.332 247.327 412.172 243.967 412.172ZM245.119 400.112C245.863 400.112 246.571 399.836 247.243 399.284C247.939 398.732 248.551 397.952 249.079 396.944L249.043 389.708C248.251 389.492 247.483 389.384 246.739 389.384C245.227 389.384 244.075 389.876 243.283 390.86C242.515 391.844 242.131 393.272 242.131 395.144C242.131 396.704 242.383 397.928 242.887 398.816C243.415 399.68 244.159 400.112 245.119 400.112ZM277.783 404.54C276.055 404.54 274.711 404.108 273.751 403.244C272.815 402.356 272.347 401.108 272.347 399.5V389.816H269.467V385.46H272.347V381.5C274.051 381.212 275.731 380.996 277.387 380.852V385.46H282.067V389.816H277.387V398.564C277.387 399.068 277.531 399.452 277.819 399.716C278.131 399.98 278.563 400.112 279.115 400.112C279.787 400.112 280.555 399.956 281.419 399.644L282.535 403.46C280.999 404.18 279.415 404.54 277.783 404.54ZM296.341 404.54C294.469 404.54 292.813 404.132 291.373 403.316C289.957 402.5 288.853 401.36 288.061 399.896C287.269 398.408 286.873 396.692 286.873 394.748C286.873 392.804 287.257 391.1 288.025 389.636C288.817 388.148 289.921 386.996 291.337 386.18C292.777 385.364 294.433 384.956 296.305 384.956C298.177 384.956 299.821 385.364 301.237 386.18C302.677 386.972 303.781 388.1 304.549 389.564C305.341 391.028 305.737 392.72 305.737 394.64C305.737 396.584 305.341 398.312 304.549 399.824C303.781 401.312 302.677 402.476 301.237 403.316C299.821 404.132 298.189 404.54 296.341 404.54ZM296.305 400.148C297.601 400.148 298.633 399.656 299.401 398.672C300.193 397.664 300.589 396.344 300.589 394.712C300.589 393.08 300.193 391.784 299.401 390.824C298.633 389.84 297.601 389.348 296.305 389.348C295.009 389.348 293.965 389.84 293.173 390.824C292.405 391.784 292.021 393.08 292.021 394.712C292.021 396.344 292.405 397.664 293.173 398.672C293.965 399.656 295.009 400.148 296.305 400.148ZM318.383 412.172C316.247 412.172 314.159 411.896 312.119 411.344L313.091 406.88C315.395 407.552 317.315 407.888 318.851 407.888C320.075 407.888 321.011 407.696 321.659 407.312C322.331 406.928 322.799 406.328 323.063 405.512C323.351 404.696 323.519 403.58 323.567 402.164H323.459C322.787 402.932 322.007 403.52 321.119 403.928C320.231 404.336 319.259 404.54 318.203 404.54C316.091 404.54 314.435 403.748 313.235 402.164C312.059 400.556 311.471 398.336 311.471 395.504C311.471 392.072 312.347 389.456 314.099 387.656C315.875 385.856 318.407 384.956 321.695 384.956C323.591 384.956 325.847 385.244 328.463 385.82C328.511 390.764 328.535 394.484 328.535 396.98C328.535 399.212 328.523 400.892 328.499 402.02C328.451 405.428 327.587 407.972 325.907 409.652C324.251 411.332 321.743 412.172 318.383 412.172ZM319.535 400.112C320.279 400.112 320.987 399.836 321.659 399.284C322.355 398.732 322.967 397.952 323.495 396.944L323.459 389.708C322.667 389.492 321.899 389.384 321.155 389.384C319.643 389.384 318.491 389.876 317.699 390.86C316.931 391.844 316.547 393.272 316.547 395.144C316.547 396.704 316.799 397.928 317.303 398.816C317.831 399.68 318.575 400.112 319.535 400.112ZM344.416 404.54C341.416 404.54 339.052 403.676 337.324 401.948C335.62 400.22 334.768 397.82 334.768 394.748C334.768 392.756 335.14 391.028 335.884 389.564C336.628 388.076 337.672 386.936 339.016 386.144C340.384 385.352 341.98 384.956 343.804 384.956C346.492 384.956 348.556 385.82 349.996 387.548C351.436 389.276 352.156 391.772 352.156 395.036C352.156 395.588 352.144 395.996 352.12 396.26H339.88C340.12 397.532 340.672 398.504 341.536 399.176C342.4 399.824 343.564 400.148 345.028 400.148C345.916 400.148 346.84 400.04 347.8 399.824C348.76 399.584 349.6 399.272 350.32 398.888L351.148 402.956C350.188 403.46 349.12 403.844 347.944 404.108C346.792 404.396 345.616 404.54 344.416 404.54ZM347.296 392.444C347.224 391.412 346.864 390.596 346.216 389.996C345.568 389.372 344.704 389.06 343.624 389.06C342.592 389.06 341.74 389.36 341.068 389.96C340.42 390.56 340.012 391.388 339.844 392.444H347.296ZM365.277 404.54C363.549 404.54 362.205 404.108 361.245 403.244C360.309 402.356 359.841 401.108 359.841 399.5V389.816H356.961V385.46H359.841V381.5C361.545 381.212 363.225 380.996 364.881 380.852V385.46H369.561V389.816H364.881V398.564C364.881 399.068 365.025 399.452 365.313 399.716C365.625 399.98 366.057 400.112 366.609 400.112C367.281 400.112 368.049 399.956 368.913 399.644L370.029 403.46C368.493 404.18 366.909 404.54 365.277 404.54ZM376.146 377.72H381.222V388.16C381.966 387.056 382.818 386.252 383.778 385.748C384.738 385.22 385.842 384.956 387.09 384.956C389.082 384.956 390.642 385.556 391.77 386.756C392.898 387.932 393.462 389.576 393.462 391.688V404H388.386V392.48C388.386 391.52 388.146 390.776 387.666 390.248C387.186 389.696 386.538 389.42 385.722 389.42C384.834 389.42 383.982 389.732 383.166 390.356C382.374 390.956 381.726 391.76 381.222 392.768V404H376.146V377.72ZM409.422 404.54C406.422 404.54 404.058 403.676 402.33 401.948C400.626 400.22 399.774 397.82 399.774 394.748C399.774 392.756 400.146 391.028 400.89 389.564C401.634 388.076 402.678 386.936 404.022 386.144C405.39 385.352 406.986 384.956 408.81 384.956C411.498 384.956 413.562 385.82 415.002 387.548C416.442 389.276 417.162 391.772 417.162 395.036C417.162 395.588 417.15 395.996 417.126 396.26H404.886C405.126 397.532 405.678 398.504 406.542 399.176C407.406 399.824 408.57 400.148 410.034 400.148C410.922 400.148 411.846 400.04 412.806 399.824C413.766 399.584 414.606 399.272 415.326 398.888L416.154 402.956C415.194 403.46 414.126 403.844 412.95 404.108C411.798 404.396 410.622 404.54 409.422 404.54ZM412.302 392.444C412.23 391.412 411.87 390.596 411.222 389.996C410.574 389.372 409.71 389.06 408.63 389.06C407.598 389.06 406.746 389.36 406.074 389.96C405.426 390.56 405.018 391.388 404.85 392.444H412.302ZM423.587 385.46H428.663V388.484H428.951C429.647 387.26 430.331 386.36 431.003 385.784C431.699 385.208 432.563 384.92 433.595 384.92C434.027 384.92 434.387 384.968 434.675 385.064L434.135 390.536C433.511 390.368 433.007 390.284 432.623 390.284C432.071 390.284 431.579 390.392 431.147 390.608C430.739 390.824 430.367 391.112 430.031 391.472C429.719 391.832 429.263 392.384 428.663 393.128V404H423.587V385.46Z" fill="#A49F9F"/>
<path d="M25.7097 306.716H38.2897L58.7137 341.274V306.716H68.5557V356H56.1237L35.5517 321.22V356H25.7097V306.716ZM97.6192 357.11C93.7712 357.11 90.3672 356.271 87.4072 354.594C84.4965 352.917 82.2272 350.573 80.5992 347.564C78.9712 344.505 78.1572 340.978 78.1572 336.982C78.1572 332.986 78.9465 329.483 80.5252 326.474C82.1532 323.415 84.4225 321.047 87.3332 319.37C90.2932 317.693 93.6972 316.854 97.5452 316.854C101.393 316.854 104.773 317.693 107.683 319.37C110.643 320.998 112.913 323.317 114.491 326.326C116.119 329.335 116.933 332.813 116.933 336.76C116.933 340.756 116.119 344.308 114.491 347.416C112.913 350.475 110.643 352.867 107.683 354.594C104.773 356.271 101.418 357.11 97.6192 357.11ZM97.5452 348.082C100.209 348.082 102.331 347.071 103.909 345.048C105.537 342.976 106.351 340.263 106.351 336.908C106.351 333.553 105.537 330.889 103.909 328.916C102.331 326.893 100.209 325.882 97.5452 325.882C94.8812 325.882 92.7352 326.893 91.1072 328.916C89.5285 330.889 88.7392 333.553 88.7392 336.908C88.7392 340.263 89.5285 342.976 91.1072 345.048C92.7352 347.071 94.8812 348.082 97.5452 348.082ZM126.147 317.89H136.359V323.81C139.369 319.173 143.439 316.854 148.569 316.854C151.48 316.854 153.947 317.545 155.969 318.926C158.041 320.258 159.546 322.182 160.483 324.698C162.21 321.985 164.134 320.011 166.255 318.778C168.426 317.495 170.893 316.854 173.655 316.854C177.75 316.854 180.932 318.087 183.201 320.554C185.52 322.971 186.679 326.351 186.679 330.692V356H176.245V332.32C176.245 330.347 175.752 328.817 174.765 327.732C173.828 326.597 172.545 326.03 170.917 326.03C168.895 326.03 167.02 326.869 165.293 328.546C163.567 330.223 162.284 332.369 161.445 334.984V356H151.011V332.32C151.011 330.396 150.518 328.867 149.531 327.732C148.545 326.597 147.237 326.03 145.609 326.03C143.784 326.03 142.057 326.721 140.429 328.102C138.851 329.434 137.568 331.333 136.581 333.8V356H126.147V317.89ZM208.823 357.11C204.877 357.11 201.744 355.433 199.425 352.078C197.107 348.723 195.947 344.16 195.947 338.388C195.947 331.383 197.723 326.055 201.275 322.404C204.827 318.704 209.933 316.854 216.593 316.854C220.343 316.854 224.733 317.446 229.765 318.63V356H219.849L220.071 349.932H219.775C218.493 352.251 216.914 354.027 215.039 355.26C213.214 356.493 211.142 357.11 208.823 357.11ZM211.043 348.008C212.573 348.008 214.077 347.194 215.557 345.566C217.037 343.938 218.419 341.767 219.701 339.054V326.622C218.123 326.178 216.544 325.956 214.965 325.956C212.005 325.956 209.761 326.967 208.231 328.99C206.751 331.013 206.011 333.997 206.011 337.944C206.011 341.052 206.455 343.519 207.343 345.344C208.231 347.12 209.465 348.008 211.043 348.008ZM252.744 357.11C248.452 357.11 245.073 355.482 242.606 352.226C240.189 348.921 238.98 344.333 238.98 338.462C238.98 331.506 240.781 326.178 244.382 322.478C248.033 318.729 253.213 316.854 259.922 316.854C260.761 316.854 262.019 316.903 263.696 317.002V301.98H273.982V356H263.844L264.066 351.042H263.77C262.487 353.015 260.909 354.52 259.034 355.556C257.209 356.592 255.112 357.11 252.744 357.11ZM255.112 348.008C256.691 348.008 258.22 347.342 259.7 346.01C261.18 344.629 262.512 342.68 263.696 340.164V326.622C262.019 326.178 260.415 325.956 258.886 325.956C255.778 325.956 253.41 326.967 251.782 328.99C250.203 331.013 249.414 333.973 249.414 337.87C249.414 341.027 249.907 343.519 250.894 345.344C251.93 347.12 253.336 348.008 255.112 348.008ZM301.683 306.716C303.114 306.667 305.827 306.642 309.823 306.642C313.869 306.642 316.607 306.667 318.037 306.716C323.119 306.815 327.115 308.171 330.025 310.786C332.936 313.401 334.391 317.027 334.391 321.664C334.391 324.969 333.651 327.905 332.171 330.47C330.691 332.986 328.595 334.935 325.881 336.316C323.217 337.697 320.183 338.388 316.779 338.388H311.969V356H301.683V306.716ZM316.335 329.656C318.753 329.656 320.627 328.965 321.959 327.584C323.341 326.203 324.031 324.328 324.031 321.96C324.031 317.619 321.639 315.448 316.853 315.448H311.969V329.656H316.335ZM339.898 347.046H346.632V310.86H340.268V301.98H357.066V347.046H363.8V356H339.898V347.046ZM382.29 357.11C378.343 357.11 375.21 355.433 372.892 352.078C370.573 348.723 369.414 344.16 369.414 338.388C369.414 331.383 371.19 326.055 374.742 322.404C378.294 318.704 383.4 316.854 390.06 316.854C393.809 316.854 398.2 317.446 403.232 318.63V356H393.316L393.538 349.932H393.242C391.959 352.251 390.38 354.027 388.506 355.26C386.68 356.493 384.608 357.11 382.29 357.11ZM384.51 348.008C386.039 348.008 387.544 347.194 389.024 345.566C390.504 343.938 391.885 341.767 393.168 339.054V326.622C391.589 326.178 390.01 325.956 388.432 325.956C385.472 325.956 383.227 326.967 381.698 328.99C380.218 331.013 379.478 333.997 379.478 337.944C379.478 341.052 379.922 343.519 380.81 345.344C381.698 347.12 382.931 348.008 384.51 348.008ZM414.802 317.89H425.014V324.476C426.593 321.861 428.418 319.937 430.49 318.704C432.562 317.471 434.98 316.854 437.742 316.854C441.837 316.854 445.044 318.087 447.362 320.554C449.681 322.971 450.84 326.351 450.84 330.692V356H440.406V332.32C440.406 330.347 439.913 328.817 438.926 327.732C437.94 326.597 436.608 326.03 434.93 326.03C432.957 326.03 431.082 326.77 429.306 328.25C427.53 329.73 426.174 331.605 425.236 333.874V356H414.802V317.89ZM472.619 357.11C470.201 357.11 467.858 356.863 465.589 356.37C463.369 355.877 461.469 355.211 459.891 354.372L460.853 345.492C462.53 346.528 464.38 347.367 466.403 348.008C468.425 348.649 470.325 348.97 472.101 348.97C473.778 348.97 475.184 348.674 476.319 348.082C477.453 347.441 478.021 346.528 478.021 345.344C478.021 344.407 477.626 343.691 476.837 343.198C476.047 342.655 474.543 341.989 472.323 341.2L470.325 340.46C468.203 339.671 466.477 338.931 465.145 338.24C463.813 337.5 462.604 336.39 461.519 334.91C460.433 333.43 459.891 331.481 459.891 329.064C459.891 325.216 461.321 322.231 464.183 320.11C467.093 317.939 470.867 316.854 475.505 316.854C479.155 316.854 483.003 317.569 487.049 319L485.643 327.806C484.212 326.967 482.584 326.301 480.759 325.808C478.983 325.265 477.305 324.994 475.727 324.994C474.099 324.994 472.791 325.265 471.805 325.808C470.867 326.351 470.399 327.14 470.399 328.176C470.399 329.163 470.793 329.903 471.583 330.396C472.372 330.889 473.704 331.457 475.579 332.098C477.059 332.641 477.922 332.961 478.169 333.06C480.241 333.899 481.967 334.713 483.349 335.502C484.73 336.291 485.939 337.475 486.975 339.054C488.011 340.583 488.529 342.557 488.529 344.974C488.529 349.019 487.073 352.053 484.163 354.076C481.252 356.099 477.404 357.11 472.619 357.11Z" fill="#5A9216"/>
<path d="M197.77 177.624C204.563 202.977 185.818 260.78 166.061 272.224C143.23 272.191 98.094 231.505 91.3006 206.152C84.5071 180.799 102.834 153.859 132.235 145.981C161.635 138.104 190.977 152.27 197.77 177.624Z" fill="#FFB300"/>
<path d="M197.77 177.624C204.563 202.977 185.818 260.78 166.061 272.224C143.23 272.191 98.094 231.505 91.3006 206.152C84.5071 180.799 102.834 153.859 132.235 145.981C161.635 138.104 190.977 152.27 197.77 177.624Z" fill="#FFB300"/>
<circle cx="144.665" cy="192.372" r="20.4704" transform="rotate(-15 144.665 192.372)" fill="white"/>
<path d="M411.699 206.152C404.906 231.505 359.77 272.191 336.939 272.224C317.182 260.78 298.437 202.977 305.23 177.624C312.023 152.27 341.365 138.104 370.765 145.981C400.166 153.859 418.493 180.799 411.699 206.152Z" fill="#8BC34A"/>
<path d="M411.699 206.152C404.906 231.505 359.77 272.191 336.939 272.224C317.182 260.78 298.437 202.977 305.23 177.624C312.023 152.27 341.365 138.104 370.765 145.981C400.166 153.859 418.493 180.799 411.699 206.152Z" fill="#8BC34A"/>
<circle cx="358.335" cy="192.372" r="20.4704" transform="rotate(15 358.335 192.372)" fill="white"/>
<g filter="url(#filter0_d)">
<path d="M341.491 127.579C341.491 168.215 286.859 247.145 250.437 256.342C214.016 247.145 159.383 168.215 159.383 127.579C159.383 86.9424 200.149 54 250.437 54C300.725 54 341.491 86.9424 341.491 127.579Z" fill="#FD1313"/>
<path d="M341.491 127.579C341.491 168.215 286.859 247.145 250.437 256.342C214.016 247.145 159.383 168.215 159.383 127.579C159.383 86.9424 200.149 54 250.437 54C300.725 54 341.491 86.9424 341.491 127.579Z" fill="#FD1313"/>
<circle cx="250.319" cy="128.402" r="33.4612" fill="white"/>
</g>
<path d="M281.418 176.035C257.95 193.703 244.515 194.197 220.007 176.035" stroke="white" stroke-width="6" stroke-linecap="round" stroke-linejoin="round"/>
<defs>
<filter id="filter0_d" x="155.383" y="54" width="190.108" height="210.342" filterUnits="userSpaceOnUse" color-interpolation-filters="sRGB">
<feFlood flood-opacity="0" result="BackgroundImageFix"/>
<feColorMatrix in="SourceAlpha" type="matrix" values="0 0 0 0 0 0 0 0 0 0 0 0 0 0 0 0 0 0 127 0"/>
<feOffset dy="4"/>
<feGaussianBlur stdDeviation="2"/>
<feColorMatrix type="matrix" values="0 0 0 0 1 0 0 0 0 1 0 0 0 0 1 0 0 0 1 0"/>
<feBlend mode="normal" in2="BackgroundImageFix" result="effect1_dropShadow"/>
<feBlend mode="normal" in="SourceGraphic" in2="effect1_dropShadow" result="shape"/>
</filter>
</defs>
</svg>
