<?xml version="1.0" standalone="no"?>
<!DOCTYPE svg PUBLIC "-//W3C//DTD SVG 20010904//EN"
 "http://www.w3.org/TR/2001/REC-SVG-20010904/DTD/svg10.dtd">
<svg version="1.0" xmlns="http://www.w3.org/2000/svg"
 width="1024.000000pt" height="1024.000000pt" viewBox="0 0 1024.000000 1024.000000"
 preserveAspectRatio="xMidYMid meet">
<metadata>
Created by potrace 1.11, written by Peter Selinger 2001-2013
</metadata>
<g transform="translate(0.000000,1024.000000) scale(0.100000,-0.100000)"
fill="#000000" stroke="none">
<path d="M4899 8916 c-2 -2 -44 -6 -94 -10 -49 -3 -106 -8 -125 -11 -19 -2
-57 -7 -85 -10 -27 -3 -81 -12 -120 -20 -38 -8 -81 -16 -95 -19 -132 -23 -403
-105 -570 -173 -87 -36 -317 -148 -380 -186 -440 -262 -773 -602 -974 -991
-85 -166 -157 -369 -185 -522 -6 -33 -13 -70 -16 -83 -6 -34 -23 -212 -24
-264 -1 -28 -3 -28 -38 -23 -85 14 -114 16 -238 17 -121 0 -221 -5 -271 -15
-12 -2 -45 -7 -75 -11 -30 -4 -104 -20 -165 -35 -620 -160 -1110 -591 -1294
-1139 -16 -47 -31 -101 -34 -118 -3 -18 -8 -48 -11 -65 -3 -18 -8 -39 -11 -47
-5 -16 -17 -157 -17 -211 -2 -344 148 -690 478 -1100 121 -151 185 -221 367
-402 478 -476 1029 -828 1411 -904 12 -2 53 -7 90 -10 66 -6 71 -4 120 29 51
33 167 142 217 202 70 84 171 235 233 347 42 76 157 304 157 312 0 2 13 33 29
68 33 73 131 335 157 423 10 33 21 63 24 68 3 4 42 -39 86 -95 541 -695 1087
-1162 1554 -1326 47 -16 87 -31 90 -32 3 -1 19 4 35 10 17 7 39 14 51 16 75
14 305 130 445 224 93 62 242 174 288 217 14 12 48 41 77 65 64 52 388 378
466 468 31 36 66 76 78 90 12 14 31 36 43 50 12 14 38 45 57 70 19 25 39 50
45 56 16 18 108 136 140 179 61 84 64 88 69 74 3 -8 21 -68 42 -134 72 -234
204 -555 303 -734 23 -41 41 -75 41 -77 0 -8 65 -109 72 -112 4 -2 8 -8 8 -13
0 -12 59 -97 129 -184 69 -87 143 -161 217 -217 57 -42 59 -43 133 -42 196 4
512 136 826 347 80 54 322 234 351 261 7 6 38 33 70 61 107 91 168 147 304
284 133 134 176 180 255 276 22 26 45 53 51 59 6 6 44 56 86 111 230 305 363
579 394 810 3 28 8 59 10 70 6 27 5 231 -1 280 -19 149 -43 247 -92 370 -218
548 -738 961 -1373 1089 -41 8 -97 18 -125 21 -27 3 -69 8 -93 11 -44 6 -282
5 -342 0 -66 -7 -145 -17 -166 -22 -20 -5 -21 -1 -28 115 -4 67 -11 145 -17
174 -5 28 -12 66 -14 82 -2 17 -9 45 -14 63 -5 18 -10 36 -11 40 -3 22 -15 65
-35 127 -97 302 -282 599 -524 844 -78 78 -112 110 -208 193 -77 66 -267 196
-388 265 -82 47 -309 158 -345 168 -14 4 -29 11 -35 15 -26 20 -357 122 -500
154 -181 40 -212 45 -360 61 -33 4 -73 9 -90 12 -39 6 -510 14 -516 9z m392
-1366 c352 -75 636 -327 747 -663 41 -126 44 -142 48 -302 2 -127 0 -151 -26
-252 -192 -754 -1122 -1013 -1671 -464 -294 295 -374 732 -204 1116 118 268
397 496 686 561 121 27 301 29 420 4z m-3252 -1903 c221 -77 372 -250 415
-476 51 -266 -87 -543 -328 -661 -109 -54 -188 -70 -306 -66 -228 10 -416 131
-525 337 -20 38 -33 69 -29 69 3 0 2 6 -4 13 -17 20 -33 133 -31 221 5 222
149 443 349 534 144 66 321 77 459 29z m6613 -12 c123 -42 221 -112 298 -210
80 -103 117 -206 126 -345 18 -274 -144 -516 -414 -618 -59 -23 -83 -26 -197
-26 -111 -1 -140 2 -196 22 -267 92 -435 334 -424 612 7 172 65 310 180 425
75 75 174 133 275 160 86 23 254 14 352 -20z m-4418 -501 c435 -312 736 -416
1035 -359 113 22 155 36 301 103 79 36 285 166 415 262 55 40 89 45 122 16 37
-32 38 -90 1 -120 -58 -48 -69 -57 -110 -83 -24 -15 -49 -33 -56 -40 -28 -26
-236 -146 -329 -189 -54 -25 -107 -49 -118 -55 -11 -5 -65 -21 -120 -35 -80
-21 -128 -27 -240 -30 -213 -5 -355 32 -590 151 -149 75 -387 228 -443 283
-28 29 -32 38 -26 65 8 38 21 57 49 67 30 12 53 4 109 -36z"/>
</g>
</svg>
